<svg width="1920" height="1080" viewBox="0 0 1920 1080" fill="none" xmlns="http://www.w3.org/2000/svg">
<circle cx="182" cy="122" r="5" fill="#FFFF00"/>
<circle cx="675" cy="791" r="5" fill="#FFFF00"/>
<circle cx="1045" cy="298" r="5" fill="#FFFF00"/>
<circle cx="1326" cy="676" r="5" fill="#FFFF00"/>
<circle cx="296" cy="666" r="5" fill="#FFFF00"/>
<circle cx="1634" cy="181" r="5" fill="#FFFF00"/>
<circle cx="552" cy="375" r="5" fill="#FFFF00"/>
<circle cx="229" cy="892" r="5" fill="#FFFF00"/>
<circle cx="1530" cy="351" r="5" fill="#FFFF00"/>
<circle cx="919" cy="521" r="5" fill="#FFFF00"/>
<circle cx="1179" cy="914" r="5" fill="#FFFF00"/>
<circle cx="111" cy="273" r="5" fill="#FFFF00"/>
<circle cx="856" cy="200" r="5" fill="#FFFF00"/>
<circle cx="1417" cy="45" r="5" fill="#FFFF00"/>
<circle cx="534" cy="966" r="5" fill="#FFFF00"/>
<circle cx="1882" cy="263" r="5" fill="#FFFF00"/>
<circle cx="1644" cy="535" r="5" fill="#FFFF00"/>
<circle cx="55" cy="556" r="5" fill="#FFFF00"/>
<circle cx="534" cy="35" r="5" fill="#FFFF00"/>
<circle cx="1467" cy="956" r="5" fill="#FFFF00"/>
<circle cx="1283" cy="429" r="5" fill="#FFFF00"/>
<circle cx="1109" cy="85" r="5" fill="#FFFF00"/>
<circle cx="234" cy="365" r="5" fill="#FFFF00"/>
<circle cx="1715" cy="844" r="5" fill="#FFFF00"/>
<circle cx="809" cy="535" r="5" fill="white"/>
<circle cx="909" cy="892" r="5" fill="white"/>
<circle cx="1525" cy="463" r="5" fill="white"/>
<circle cx="415" cy="186" r="5" fill="white"/>
<circle cx="86" cy="862" r="5" fill="white"/>
<circle cx="1725" cy="298" r="5" fill="white"/>
<circle cx="1485" cy="809" r="5" fill="white"/>
<circle cx="358" cy="453" r="5" fill="white"/>
<circle cx="1417" cy="145" r="5" fill="white"/>
<circle cx="219" cy="224" r="5" fill="white"/>
<circle cx="1099" cy="730" r="5" fill="white"/>
<circle cx="192" cy="566" r="5" fill="white"/>
<circle cx="995" cy="200" r="5" fill="white"/>
<circle cx="734" cy="85" r="5" fill="white"/>
<circle cx="1283" cy="809" r="5" fill="white"/>
<circle cx="492" cy="631" r="5" fill="white"/>
<circle cx="1149" cy="597" r="5" fill="white"/>
<circle cx="1799" cy="112" r="5" fill="white"/>
<circle cx="1789" cy="641" r="5" fill="white"/>
<circle cx="390" cy="796" r="5" fill="white"/>
<circle cx="670" cy="253" r="5" fill="white"/>
<circle cx="645" cy="602" r="5" fill="white"/>
<circle cx="919" cy="740" r="5" fill="white"/>
<circle cx="1119" cy="458" r="5" fill="white"/>
<circle cx="799" cy="375" r="5" fill="white"/>
<circle cx="1220" cy="268" r="5" fill="white"/>
<circle cx="1515" cy="602" r="5" fill="white"/>
<circle cx="1688" cy="946" r="5" fill="white"/>
</svg>
