<svg width="157" height="28" viewBox="0 0 157 28" fill="none" xmlns="http://www.w3.org/2000/svg">
<path d="M10.3114 27H0.633878V0.818181H10.2987C12.9663 0.818181 15.2631 1.34233 17.1893 2.39062C19.1239 3.4304 20.6154 4.9304 21.6637 6.89062C22.712 8.84233 23.2362 11.1776 23.2362 13.8963C23.2362 16.6236 22.712 18.9673 21.6637 20.9276C20.6239 22.8878 19.1367 24.392 17.2021 25.4403C15.2674 26.4801 12.9705 27 10.3114 27ZM6.962 21.6051H10.0685C11.5344 21.6051 12.7745 21.358 13.7887 20.8636C14.8114 20.3608 15.5827 19.5469 16.1026 18.4219C16.631 17.2884 16.8952 15.7798 16.8952 13.8963C16.8952 12.0128 16.631 10.5128 16.1026 9.39631C15.5742 8.27131 14.7944 7.46165 13.7631 6.96733C12.7404 6.46449 11.479 6.21307 9.97905 6.21307H6.962V21.6051ZM67.9325 27H58.255V0.818181H67.9197C70.5874 0.818181 72.8842 1.34233 74.8104 2.39062C76.745 3.4304 78.2365 4.9304 79.2848 6.89062C80.3331 8.84233 80.8572 11.1776 80.8572 13.8963C80.8572 16.6236 80.3331 18.9673 79.2848 20.9276C78.245 22.8878 76.7578 24.392 74.8232 25.4403C72.8885 26.4801 70.5916 27 67.9325 27ZM64.5831 21.6051H67.6896C69.1555 21.6051 70.3956 21.358 71.4098 20.8636C72.4325 20.3608 73.2038 19.5469 73.7237 18.4219C74.2521 17.2884 74.5163 15.7798 74.5163 13.8963C74.5163 12.0128 74.2521 10.5128 73.7237 9.39631C73.1953 8.27131 72.4155 7.46165 71.3842 6.96733C70.3615 6.46449 69.1001 6.21307 67.6001 6.21307H64.5831V21.6051Z" fill="#FEE302"/>
<path d="M32.4663 27.3324C31.2134 27.3324 30.1012 27.1236 29.1296 26.706C28.1665 26.2798 27.4038 25.6406 26.8413 24.7884C26.2873 23.9276 26.0103 22.8494 26.0103 21.554C26.0103 20.4631 26.2021 19.5426 26.5856 18.7926C26.9691 18.0426 27.4975 17.4332 28.1708 16.9645C28.8441 16.4957 29.6197 16.142 30.4975 15.9034C31.3754 15.6562 32.3129 15.4901 33.31 15.4048C34.4265 15.3026 35.3256 15.196 36.0075 15.0852C36.6893 14.9659 37.1836 14.7997 37.4904 14.5866C37.8058 14.3651 37.9634 14.054 37.9634 13.6534V13.5895C37.9634 12.9332 37.7376 12.4261 37.2859 12.0682C36.8342 11.7102 36.2248 11.5312 35.4577 11.5312C34.631 11.5312 33.9663 11.7102 33.4634 12.0682C32.9606 12.4261 32.641 12.9205 32.5046 13.5511L26.739 13.3466C26.9094 12.1534 27.3484 11.0881 28.0558 10.1506C28.7717 9.20455 29.7518 8.46307 30.9961 7.92614C32.2489 7.38068 33.7532 7.10795 35.5089 7.10795C36.7617 7.10795 37.9165 7.2571 38.9734 7.5554C40.0302 7.84517 40.9506 8.27131 41.7347 8.83381C42.5188 9.38778 43.1239 10.0696 43.5501 10.8793C43.9847 11.6889 44.2021 12.6136 44.2021 13.6534V27H38.3214V24.2642H38.168C37.8185 24.929 37.3711 25.4915 36.8256 25.9517C36.2887 26.4119 35.6538 26.7571 34.9208 26.9872C34.1964 27.2173 33.3782 27.3324 32.4663 27.3324ZM34.3967 23.2415C35.07 23.2415 35.6751 23.1051 36.212 22.8324C36.7575 22.5597 37.1921 22.1847 37.516 21.7074C37.8398 21.2216 38.0018 20.6591 38.0018 20.0199V18.1534C37.8228 18.2472 37.6055 18.3324 37.3498 18.4091C37.1026 18.4858 36.8299 18.5582 36.5316 18.6264C36.2333 18.6946 35.9265 18.7543 35.6112 18.8054C35.2958 18.8565 34.9933 18.9034 34.7035 18.946C34.1154 19.0398 33.6126 19.1847 33.195 19.3807C32.7859 19.5767 32.4705 19.8324 32.2489 20.1477C32.0359 20.4545 31.9293 20.821 31.9293 21.2472C31.9293 21.8949 32.1594 22.3892 32.6197 22.7301C33.0884 23.071 33.6808 23.2415 34.3967 23.2415ZM54.2759 0.818181V27H48.0245V0.818181H54.2759ZM90.0874 27.3324C88.8345 27.3324 87.7223 27.1236 86.7507 26.706C85.7876 26.2798 85.0249 25.6406 84.4624 24.7884C83.9084 23.9276 83.6314 22.8494 83.6314 21.554C83.6314 20.4631 83.8232 19.5426 84.2067 18.7926C84.5902 18.0426 85.1186 17.4332 85.7919 16.9645C86.4652 16.4957 87.2408 16.142 88.1186 15.9034C88.9964 15.6562 89.9339 15.4901 90.9311 15.4048C92.0476 15.3026 92.9467 15.196 93.6286 15.0852C94.3104 14.9659 94.8047 14.7997 95.1115 14.5866C95.4268 14.3651 95.5845 14.054 95.5845 13.6534V13.5895C95.5845 12.9332 95.3587 12.4261 94.907 12.0682C94.4553 11.7102 93.8459 11.5312 93.0788 11.5312C92.2521 11.5312 91.5874 11.7102 91.0845 12.0682C90.5817 12.4261 90.2621 12.9205 90.1257 13.5511L84.3601 13.3466C84.5305 12.1534 84.9695 11.0881 85.6768 10.1506C86.3928 9.20455 87.3729 8.46307 88.6172 7.92614C89.87 7.38068 91.3743 7.10795 93.13 7.10795C94.3828 7.10795 95.5376 7.2571 96.5945 7.5554C97.6513 7.84517 98.5717 8.27131 99.3558 8.83381C100.14 9.38778 100.745 10.0696 101.171 10.8793C101.606 11.6889 101.823 12.6136 101.823 13.6534V27H95.9425V24.2642H95.7891C95.4396 24.929 94.9922 25.4915 94.4467 25.9517C93.9098 26.4119 93.2749 26.7571 92.5419 26.9872C91.8175 27.2173 90.9993 27.3324 90.0874 27.3324ZM92.0178 23.2415C92.6911 23.2415 93.2962 23.1051 93.8331 22.8324C94.3786 22.5597 94.8132 22.1847 95.1371 21.7074C95.4609 21.2216 95.6229 20.6591 95.6229 20.0199V18.1534C95.4439 18.2472 95.2266 18.3324 94.9709 18.4091C94.7237 18.4858 94.451 18.5582 94.1527 18.6264C93.8544 18.6946 93.5476 18.7543 93.2322 18.8054C92.9169 18.8565 92.6143 18.9034 92.3246 18.946C91.7365 19.0398 91.2337 19.1847 90.8161 19.3807C90.407 19.5767 90.0916 19.8324 89.87 20.1477C89.657 20.4545 89.5504 20.821 89.5504 21.2472C89.5504 21.8949 89.7805 22.3892 90.2408 22.7301C90.7095 23.071 91.3018 23.2415 92.0178 23.2415ZM111.897 0.818181V27H105.646V0.818181H111.897Z" fill="#FEC001"/>
<path d="M134.694 7.36364V11.9659H122.306V7.36364H134.694ZM124.902 2.65909H131.153V20.8253C131.153 21.2088 131.213 21.5199 131.332 21.7585C131.46 21.9886 131.643 22.1548 131.882 22.2571C132.12 22.3509 132.406 22.3977 132.738 22.3977C132.977 22.3977 133.228 22.3764 133.493 22.3338C133.765 22.2827 133.97 22.2401 134.106 22.206L135.052 26.7188C134.754 26.804 134.332 26.9105 133.787 27.0384C133.25 27.1662 132.606 27.2472 131.856 27.2812C130.39 27.3494 129.133 27.179 128.085 26.7699C127.045 26.3523 126.248 25.7045 125.694 24.8267C125.149 23.9489 124.885 22.8452 124.902 21.5156V2.65909ZM156.932 7.36364L150.195 27H143.036L136.311 7.36364H142.895L146.513 20.8892H146.718L150.348 7.36364H156.932Z" fill="white"/>
</svg>
